<svg xmlns="http://www.w3.org/2000/svg" xmlns:xlink="http://www.w3.org/1999/xlink" width="1660" height="152" viewBox="0 0 1660 152">
    <defs>
        <linearGradient id="b" x1="100%" x2="0%" y1="50%" y2="50%">
            <stop offset="0%" stop-color="#0DD3C5"/>
            <stop offset="100%" stop-color="#0D83CD"/>
        </linearGradient>
        <path id="a" d="M0 0h1660v152H0z"/>
        <linearGradient id="d" x1="96.609%" x2="14.073%" y1="48.146%" y2="53.257%">
            <stop offset="0%" stop-color="#0FF"/>
            <stop offset="64.655%" stop-color="#9FFFFC"/>
            <stop offset="100%" stop-color="#D0FEFF" stop-opacity="0"/>
        </linearGradient>
        <linearGradient id="e" x1="114.011%" x2="-19.114%" y1="49.716%" y2="49.864%">
            <stop offset="0%" stop-color="#D2FFFE"/>
            <stop offset="100%" stop-color="#D0FEFF" stop-opacity="0"/>
        </linearGradient>
    </defs>
    <g fill="none" fill-rule="evenodd">
        <mask id="c" fill="#fff">
            <use xlink:href="#a"/>
        </mask>
        <use fill="url(#b)" fill-rule="nonzero" xlink:href="#a"/>
        <g mask="url(#c)">
            <path fill="url(#d)" fill-opacity=".5" d="M2417.484 195.218c-243.82-29.038-463.908 37.837-660.267 200.625C1462.68 640.024 834.623 893.159 399.684 856.184c-434.939-36.974-562.152-401.018-140.158-587.66 421.993-186.643 1730.498 2.172 1886.799-20.1 156.301-22.273 225.977-79.676 271.159-53.206z" opacity=".431" transform="translate(-225 -96.95)"/>
            <path fill="url(#e)" d="M2447.715 51.061c358.48 56.246-88.71 123.188-268.957 193.595-180.247 70.406-333.574 221.383-390.07 244.921C1173.745 745.787 648.823 716.794 213.922 402.6 786.898 149.897 1171.196 17.032 1366.817 4.003c466.368-31.062 657.542 133.833 1080.898 47.058z" opacity=".577" transform="translate(-225 -96.95)"/>
        </g>
    </g>
</svg>
