<svg xmlns="http://www.w3.org/2000/svg" xmlns:xlink="http://www.w3.org/1999/xlink" width="24" height="24" viewBox="0 0 24 24">
    <path d="M15 2.8C16.2 1.4 16 0 16 0s-1.8 0-3.1 1.5C11.7 2.8 12 4 12 4s1.6.2 3-1.2zm2.4 8.1c0-2.6 2.1-3.7 2.1-3.7s-1.1-1.9-3.8-1.9c-1.6 0-2.8.9-3.5.9-.8 0-1.9-.8-3.4-.8-2.3 0-4.7 2-4.7 5.9C4 15.1 6.9 20 9.2 20c.8 0 2-.8 3.2-.8 1.2 0 2.1.8 3.2.8 2.5 0 4.3-5.1 4.3-5.1s-2.5-1.1-2.5-4zm-.3 5.5c-.6 1-1.2 1.6-1.4 1.6-.1 0-.3 0-.7-.2-.1 0-.1 0-.2-.1-1-.4-1.5-.5-2.3-.5-.8 0-1.5.2-2.5.5-.7.3-.9.3-.8.3-.9 0-3.2-3.8-3.2-6.8 0-2.4 1.3-3.9 2.7-3.9.3 0 .7.1 1.2.3-.1 0 .8.3 1 .4.5.1.8.2 1.3.2.4 0 .8-.1 1.3-.3.2-.1.8-.3.8-.3.6-.2 1-.3 1.4-.3.3 0 .6 0 .8.1-.7 1-1.1 2.2-1.1 3.5 0 1.9.7 3.4 2 4.5l.2.2c-.3.3-.4.5-.5.8z"/>
</svg>
