<svg xmlns="http://www.w3.org/2000/svg" width="24" height="24" viewBox="0 0 24 24"><path fill="#351D48" fill-rule="evenodd" d="M12 16a2 2 0 0 1-2-2h4a2 2 0 0 1-2 2zm-3.625-4c.76 0 1.375.613 1.375 1.37H7c0-.757.616-1.37 1.375-1.37zm6.998 0c.759 0 1.373.615 1.373 1.373H14c0-.758.615-1.373 1.373-1.373zM12.15 6.1a1 1 0 1 1 0-2 1 1 0 0 1 0 2zm5.879 3.056A106.57 106.57 0 0 0 12 9c-2.343 0-4.363.06-6.028.156-.441.025-.753.267-.827.556a41.54 41.54 0 0 0-.788 3.688c-.146.914-.267 2.01-.356 3.253-.01.147.042.286.173.422.165.17.404.274.688.286 2.304.1 4.747.162 7.138.162 2.39 0 4.833-.063 7.138-.162a1 1 0 0 0 .687-.286c.132-.136.184-.275.173-.423a38.273 38.273 0 0 0-.355-3.252 41.581 41.581 0 0 0-.788-3.688c-.074-.29-.386-.531-.827-.556zm2.764.058c.25.97.595 2.428.826 3.87.156.976.282 2.128.375 3.425a2.527 2.527 0 0 1-.733 1.959 2.997 2.997 0 0 1-2.036.891c-1.731.075-4.39.164-7.224.164-2.835 0-5.493-.09-7.224-.164a2.997 2.997 0 0 1-2.037-.891 2.527 2.527 0 0 1-.732-1.959c.092-1.297.219-2.45.375-3.425.231-1.443.576-2.901.826-3.87.297-1.155 1.362-1.981 2.65-2.055C7.122 7.087 9.214 7 12 7c2.786 0 4.878.087 6.142.159 1.288.074 2.353.9 2.65 2.055z"/></svg>