<svg xmlns="http://www.w3.org/2000/svg" xmlns:xlink="http://www.w3.org/1999/xlink" width="862" height="80" version="1.1" viewBox="0 0 862 80"><title>Group 6</title><desc>Created with Sketch.</desc><defs><linearGradient id="linearGradient-1" x1="96.609%" x2="14.073%" y1="49.643%" y2="50.627%"><stop offset="0%" stop-color="#FFF" stop-opacity="0"/><stop offset="64.655%" stop-color="#FFF"/><stop offset="100%" stop-color="#D0FEFF" stop-opacity="0"/></linearGradient><linearGradient id="linearGradient-2" x1="96.609%" x2="-22.628%" y1="49.381%" y2="52.512%"><stop offset="0%" stop-color="#FFF" stop-opacity="0"/><stop offset="47%" stop-color="#FFF"/><stop offset="100%" stop-color="#D0FEFF" stop-opacity="0"/></linearGradient><linearGradient id="linearGradient-3" x1="88.637%" x2="14.073%" y1="49.885%" y2="50.333%"><stop offset="0%" stop-color="#FFF" stop-opacity="0"/><stop offset="52.308%" stop-color="#FFF" stop-opacity=".3"/><stop offset="100%" stop-color="#FFF" stop-opacity="0"/></linearGradient></defs><g id="1st-Iteration---Without-Testing,-QA,-Dashboard" fill="none" fill-rule="evenodd" stroke="none" stroke-width="1"><g id="Latest-App-Copy-2" transform="translate(-91.000000, 0.000000)"><g id="Group-3"><g id="Group-8"><g id="Group-6" transform="translate(-15.999624, -6.999236)"><path id="Combined-Shape" fill="url(#linearGradient-1)" fill-opacity=".5" d="M881.735481,86.9990641 L210.156384,86.9978664 C218.71153,52.9875994 258.306013,22.8146204 333.594585,9.30207949 C448.470008,-11.3153767 695.406951,42.43158 881.735481,86.9990641 Z" opacity=".431" transform="translate(545.945975, 45.880259) scale(-1, 1) translate(-545.945975, -45.880259)"/><path id="Combined-Shape" fill="url(#linearGradient-2)" fill-opacity=".5" d="M975.999624,7.00298921 L975.999624,86.9972046 L479.881688,87.0001375 C522.81394,59.2648802 567.029696,31.8415792 610.365803,7.00153703 L975.999624,7.00298921 Z" opacity=".431"/><path id="Combined-Shape" fill="url(#linearGradient-3)" d="M871.7687,87.0029988 L0.532462766,86.9976624 C26.9483975,25.2137692 111.220589,-23.3393292 246.79476,14.1075744 C423.760964,62.9873598 649.806848,31.4599363 798.08942,7.20277579 L963.958206,7.20043089 C965.226263,31.2899681 937.377576,70.049062 871.7687,87.0029988 Z" transform="translate(482.265999, 44.001117) scale(-1, 1) translate(-482.265999, -44.001117)"/></g></g></g></g></g></svg>