<svg xmlns="http://www.w3.org/2000/svg" width="666" height="192" viewBox="0 0 666 192">
    <defs>
        <radialGradient id="a" cx="48.321%" cy="-24.114%" r="124.328%" fx="48.321%" fy="-24.114%" gradientTransform="matrix(.0135 .99827 -.37786 .09665 .386 -.7)">
            <stop offset="0%" stop-color="#0DD3C5"/>
            <stop offset="57.573%" stop-color="#0D83CD" stop-opacity=".501"/>
            <stop offset="100%" stop-color="#0D83CD" stop-opacity="0"/>
        </radialGradient>
    </defs>
    <path fill="url(#a)" fill-rule="evenodd" d="M590.766 297.543l2.478 16.241a3514.967 3514.967 0 0 1 43.771-5.394l2.385-6.682c1.523-.225 2.987-.435 4.39-.63 1.531-6.117 7.676-10.958 15.335-11.492 7.424-.518 14.004 3.168 16.558 8.718 1.461-.084 2.988-.17 4.582-.26l1.884 5.43c58.05-5.835 107.167-8.754 147.351-8.754 25.44 0 54.461 1.17 87.062 3.51l3.683-5.973c2.528.158 4.955.32 7.28.484 4.559-9.32 16.104-15.01 28.609-13.258 12.12 1.7 21.441 9.874 23.649 19.673 2.379.364 4.865.746 7.459 1.146l.536 4.295c72.858 7.634 159.266 19.694 259.222 36.18V439l-835-1.274v-96.949c55.165-9.098 106.203-16.849 153.114-23.251l4.064-30.915c-13.731-9.514-21.6-20.896-18.037-27.051 4.08-7.05 21.61-4.574 39.153 5.53 17.544 10.102 28.458 24.008 24.377 31.057-2.87 4.96-12.399 5.205-23.905 1.396zm4.259-41.163c-2.532 0-4.585-2.1-4.585-4.69 0-2.59 2.053-4.69 4.585-4.69s4.585 2.1 4.585 4.69c0 2.59-2.053 4.69-4.585 4.69z" opacity=".198" transform="translate(-474 -247)"/>
</svg>
