<svg xmlns="http://www.w3.org/2000/svg" width="32" height="40" viewBox="0 0 32 40">
    <path d="M20 4H6a2 2 0 0 0-2 2v28a2 2 0 0 0 2 2h20a2 2 0 0 0 2-2V12.008h-6a2 2 0 0 1-2-2V4zm2 .828v5.18h5.183L22 4.828zM6 2h14.344a4 4 0 0 1 2.827 1.171l5.657 5.654A4 4 0 0 1 30 11.654V34a4 4 0 0 1-4 4H6a4 4 0 0 1-4-4V6a4 4 0 0 1 4-4zm20 22.017l-.964 4.581h-2.94c-.173.232-.311.41-.439.562l.606 2.836L18.16 34l-1.838-2.37h-.65l-1.842 2.249-4.084-1.996.593-2.774c-.184-.192-.35-.4-.497-.623h-2.87L6 23.864l2.604-1.326c.034-.23.085-.461.154-.684l-1.789-2.306 2.928-3.643 2.567 1.244.534-.272.737-2.877h4.508l.858 2.867.554.282 2.566-1.244 2.929 3.643-1.842 2.374a98.6 98.6 0 0 1 .134.607L26 24.017zm-4.19-.239l-.097-.395a28.074 28.074 0 0 1-.17-.754c-.082-.37-.117-.53-.16-.706l-.112-.454 1.473-1.9-1.043-1.298-2.066 1.002-2.094-1.066-.687-2.298h-1.67l-.586 2.288-2.114 1.076-2.066-1.002-1.043 1.298 1.557 2.007-.267.543c-.142.29-.231.7-.231 1.033v.59L8.138 24.91l.35 1.667h2.47l.259.527c.177.36.425.676.717.899l.481.367-.522 2.445 1.432.7 1.468-1.794h2.438l1.471 1.897 1.413-.69-.503-2.356.362-.368c.233-.237.438-.498.906-1.133l.281-.382h2.359l.359-1.707-2.069-1.204zM16.118 22c-1.08 0-1.965.9-1.965 2s.884 2 1.965 2c1.08 0 1.964-.9 1.964-2s-.884-2-1.964-2zm0-2c2.166 0 3.93 1.795 3.93 4s-1.764 4-3.93 4c-2.166 0-3.93-1.795-3.93-4s1.764-4 3.93-4z"/>
</svg>
