<svg xmlns="http://www.w3.org/2000/svg" width="32" height="40" viewBox="0 0 32 40">
    <path d="M20 4H6a2 2 0 0 0-2 2v28a2 2 0 0 0 2 2h20a2 2 0 0 0 2-2V12.008h-6a2 2 0 0 1-2-2V4zm2 .828v5.18h5.183L22 4.828zM6 2h14.344a4 4 0 0 1 2.827 1.171l5.657 5.654A4 4 0 0 1 30 11.654V34a4 4 0 0 1-4 4H6a4 4 0 0 1-4-4V6a4 4 0 0 1 4-4zm17.237 27.99l.797-2.98a.31.31 0 0 0-.08-.3l-2.106-2.107a.314.314 0 0 0-.3-.081l-2.877.771a.315.315 0 0 0-.221.22l-.798 2.981a.312.312 0 0 0 .08.3l2.106 2.106c.08.08.193.109.301.081l2.877-.77a.315.315 0 0 0 .22-.221zm-.006-6.77l2.105 2.105c.57.57.796 1.41.587 2.191l-.798 2.98a2.274 2.274 0 0 1-1.603 1.603l-2.876.77a2.277 2.277 0 0 1-2.191-.588l-2.105-2.104a2.274 2.274 0 0 1-.587-2.19l.799-2.98c.024-.092.072-.173.108-.26l-3.864-3.864-2.627 2.69-1.383-1.383 1.768-1.831-1.337-1.337-1.845 1.846L6 19.486l2.705-2.705-1.399-1.399L8.69 14l9.426 9.426c.018-.006.034-.017.051-.022l2.876-.77a2.266 2.266 0 0 1 2.189.587z"/>
</svg>
